<?xml version="1.0"?>
<svg xmlns="http://www.w3.org/2000/svg" xmlns:xlink="http://www.w3.org/1999/xlink" version="1.1" id="Capa_1" x="0px" y="0px" viewBox="0 0 511.997 511.997" style="enable-background:new 0 0 511.997 511.997;" xml:space="preserve" width="512px" height="512px" class=""><g transform="matrix(6.12323e-17 1 -1 6.12323e-17 511.997 0)"><g>
	<g>
		<path d="M8.532,313.297c-4.71,0-8.532,3.814-8.532,8.532v17.065c0,4.718,3.822,8.532,8.532,8.532c4.71,0,8.532-3.814,8.532-8.532    V321.83C17.065,317.111,13.242,313.297,8.532,313.297z" data-original="#000000" class="active-path" data-old_color="#000000" fill="#FFFFFF"/>
	</g>
</g><g>
	<g>
		<path d="M8.532,415.685c-4.71,0-8.532,3.814-8.532,8.532v17.065c0,4.718,3.822,8.532,8.532,8.532c4.71,0,8.532-3.814,8.532-8.532    v-17.065C17.065,419.499,13.242,415.685,8.532,415.685z" data-original="#000000" class="active-path" data-old_color="#000000" fill="#FFFFFF"/>
	</g>
</g><g>
	<g>
		<path d="M8.532,364.491c-4.71,0-8.532,3.814-8.532,8.532v17.065c0,4.718,3.822,8.532,8.532,8.532c4.71,0,8.532-3.814,8.532-8.532    v-17.065C17.065,368.305,13.242,364.491,8.532,364.491z" data-original="#000000" class="active-path" data-old_color="#000000" fill="#FFFFFF"/>
	</g>
</g><g>
	<g>
		<path d="M225.493,0.033h-17.065c-4.71,0-8.532,3.814-8.532,8.532s3.822,8.532,8.532,8.532h17.065c4.71,0,8.532-3.814,8.532-8.532    S230.202,0.033,225.493,0.033z" data-original="#000000" class="active-path" data-old_color="#000000" fill="#FFFFFF"/>
	</g>
</g><g>
	<g>
		<path d="M29.71,13.394c-3.097-3.558-8.481-3.95-12.039-0.862c-5.205,4.514-9.386,9.923-12.423,16.092    c-2.082,4.232-0.35,9.351,3.882,11.433c1.212,0.589,2.491,0.879,3.763,0.879c3.148,0,6.177-1.749,7.662-4.761    c2.022-4.113,4.812-7.73,8.293-10.742C32.406,22.345,32.79,16.961,29.71,13.394z" data-original="#000000" class="active-path" data-old_color="#000000" fill="#FFFFFF"/>
	</g>
</g><g>
	<g>
		<path d="M71.911,0.033H54.846c-4.71,0-8.532,3.814-8.532,8.532s3.822,8.532,8.532,8.532h17.065c4.71,0,8.532-3.814,8.532-8.532    S76.629,0.033,71.911,0.033z" data-original="#000000" class="active-path" data-old_color="#000000" fill="#FFFFFF"/>
	</g>
</g><g>
	<g>
		<path d="M26.049,483.85c-3.114-3.387-5.478-7.287-7.014-11.595c-1.578-4.445-6.468-6.749-10.896-5.179    c-4.437,1.587-6.758,6.468-5.171,10.896c2.304,6.485,5.845,12.346,10.512,17.432c1.681,1.834,3.976,2.756,6.288,2.756    c2.065,0,4.13-0.742,5.768-2.253C29.01,492.715,29.232,487.323,26.049,483.85z" data-original="#000000" class="active-path" data-old_color="#000000" fill="#FFFFFF"/>
	</g>
</g><g>
	<g>
		<path d="M8.532,57.327C3.822,57.327,0,61.141,0,65.86v17.065c0,4.718,3.822,8.532,8.532,8.532c4.71,0,8.532-3.814,8.532-8.532    V65.86C17.065,61.141,13.242,57.327,8.532,57.327z" data-original="#000000" class="active-path" data-old_color="#000000" fill="#FFFFFF"/>
	</g>
</g><g>
	<g>
		<path d="M123.105,0.033H106.04c-4.71,0-8.532,3.814-8.532,8.532s3.822,8.532,8.532,8.532h17.065c4.71,0,8.532-3.814,8.532-8.532    S127.814,0.033,123.105,0.033z" data-original="#000000" class="active-path" data-old_color="#000000" fill="#FFFFFF"/>
	</g>
</g><g>
	<g>
		<path d="M174.299,0.033h-17.065c-4.71,0-8.532,3.814-8.532,8.532s3.822,8.532,8.532,8.532h17.065c4.71,0,8.532-3.814,8.532-8.532    S179.008,0.033,174.299,0.033z" data-original="#000000" class="active-path" data-old_color="#000000" fill="#FFFFFF"/>
	</g>
</g><g>
	<g>
		<path d="M8.532,159.715c-4.71,0-8.532,3.814-8.532,8.532v17.065c0,4.718,3.822,8.532,8.532,8.532c4.71,0,8.532-3.814,8.532-8.532    v-17.065C17.065,163.529,13.242,159.715,8.532,159.715z" data-original="#000000" class="active-path" data-old_color="#000000" fill="#FFFFFF"/>
	</g>
</g><g>
	<g>
		<path d="M8.532,210.909c-4.71,0-8.532,3.814-8.532,8.532v17.065c0,4.718,3.822,8.532,8.532,8.532c4.71,0,8.532-3.814,8.532-8.532    v-17.065C17.065,214.723,13.242,210.909,8.532,210.909z" data-original="#000000" class="active-path" data-old_color="#000000" fill="#FFFFFF"/>
	</g>
</g><g>
	<g>
		<path d="M8.532,262.103c-4.71,0-8.532,3.814-8.532,8.532V287.7c0,4.718,3.822,8.532,8.532,8.532c4.71,0,8.532-3.814,8.532-8.532    v-17.065C17.065,265.917,13.242,262.103,8.532,262.103z" data-original="#000000" class="active-path" data-old_color="#000000" fill="#FFFFFF"/>
	</g>
</g><g>
	<g>
		<path d="M8.532,108.521c-4.71,0-8.532,3.814-8.532,8.532v17.065c0,4.718,3.822,8.532,8.532,8.532c4.71,0,8.532-3.814,8.532-8.532    v-17.065C17.065,112.335,13.242,108.521,8.532,108.521z" data-original="#000000" class="active-path" data-old_color="#000000" fill="#FFFFFF"/>
	</g>
</g><g>
	<g>
		<path d="M67.039,494.908l-16.885-0.017c-0.06,0-0.119,0-0.179,0c-4.625,0-8.43,3.712-8.532,8.353    c-0.094,4.71,3.643,8.609,8.353,8.712l17.244,0.017c4.71,0,8.532-3.814,8.532-8.532S71.748,494.908,67.039,494.908z" data-original="#000000" class="active-path" data-old_color="#000000" fill="#FFFFFF"/>
	</g>
</g><g>
	<g>
		<path d="M503.408,388.86c-4.71,0-8.532,3.814-8.532,8.532v17.065c0,4.718,3.823,8.532,8.532,8.532c4.71,0,8.532-3.814,8.532-8.532    v-17.065C511.94,392.682,508.118,388.86,503.408,388.86z" data-original="#000000" class="active-path" data-old_color="#000000" fill="#FFFFFF"/>
	</g>
</g><g>
	<g>
		<path d="M503.408,337.666c-4.71,0-8.532,3.814-8.532,8.532v17.065c0,4.718,3.823,8.532,8.532,8.532    c4.71,0,8.532-3.814,8.532-8.532v-17.065C511.94,341.488,508.118,337.666,503.408,337.666z" data-original="#000000" class="active-path" data-old_color="#000000" fill="#FFFFFF"/>
	</g>
</g><g>
	<g>
		<path d="M503.408,440.054c-4.71,0-8.532,3.814-8.532,8.532v12.193c0,4.616-0.896,9.078-2.679,13.285    c-1.834,4.343,0.188,9.351,4.531,11.186c1.084,0.461,2.21,0.674,3.319,0.674c3.328,0,6.485-1.954,7.858-5.205    c2.671-6.314,4.027-13.02,4.027-19.932v-12.193C511.94,443.876,508.118,440.054,503.408,440.054z" data-original="#000000" class="active-path" data-old_color="#000000" fill="#FFFFFF"/>
	</g>
</g><g>
	<g>
		<path d="M276.687,0.033h-17.065c-4.71,0-8.532,3.814-8.532,8.532s3.822,8.532,8.532,8.532h17.065c4.71,0,8.532-3.814,8.532-8.532    S281.396,0.033,276.687,0.033z" data-original="#000000" class="active-path" data-old_color="#000000" fill="#FFFFFF"/>
	</g>
</g><g>
	<g>
		<path d="M484.176,497.451c-1.706-4.394-6.655-6.604-11.041-4.855c-3.942,1.536-8.114,2.312-12.389,2.312h-1.22    c-4.71,0-8.532,3.814-8.532,8.532s3.823,8.532,8.532,8.532h1.229c6.399-0.009,12.645-1.186,18.558-3.481    C483.707,506.785,485.883,501.845,484.176,497.451z" data-original="#000000" class="active-path" data-old_color="#000000" fill="#FFFFFF"/>
	</g>
</g><g>
	<g>
		<path d="M503.408,286.472c-4.71,0-8.532,3.814-8.532,8.532v17.065c0,4.718,3.823,8.532,8.532,8.532    c4.71,0,8.532-3.814,8.532-8.532v-17.065C511.94,290.294,508.118,286.472,503.408,286.472z" data-original="#000000" class="active-path" data-old_color="#000000" fill="#FFFFFF"/>
	</g>
</g><g>
	<g>
		<path d="M118.233,494.908h-17.065c-4.71,0-8.532,3.814-8.532,8.532s3.823,8.532,8.532,8.532h17.065    c4.71,0,8.532-3.814,8.532-8.532S122.942,494.908,118.233,494.908z" data-original="#000000" class="active-path" data-old_color="#000000" fill="#FFFFFF"/>
	</g>
</g><g>
	<g>
		<path d="M503.408,235.278c-4.71,0-8.532,3.814-8.532,8.532v17.065c0,4.718,3.823,8.532,8.532,8.532    c4.71,0,8.532-3.814,8.532-8.532V243.81C511.94,239.1,508.118,235.278,503.408,235.278z" data-original="#000000" class="active-path" data-old_color="#000000" fill="#FFFFFF"/>
	</g>
</g><g>
	<g>
		<path d="M425.397,494.908h-17.065c-4.71,0-8.532,3.814-8.532,8.532s3.823,8.532,8.532,8.532h17.065    c4.71,0,8.532-3.814,8.532-8.532S430.107,494.908,425.397,494.908z" data-original="#000000" class="active-path" data-old_color="#000000" fill="#FFFFFF"/>
	</g>
</g><g>
	<g>
		<path d="M220.621,494.908h-17.065c-4.71,0-8.532,3.814-8.532,8.532s3.823,8.532,8.532,8.532h17.065    c4.71,0,8.532-3.814,8.532-8.532S225.331,494.908,220.621,494.908z" data-original="#000000" class="active-path" data-old_color="#000000" fill="#FFFFFF"/>
	</g>
</g><g>
	<g>
		<path d="M169.427,494.908h-17.065c-4.71,0-8.532,3.814-8.532,8.532s3.823,8.532,8.532,8.532h17.065    c4.71,0,8.532-3.814,8.532-8.532S174.136,494.908,169.427,494.908z" data-original="#000000" class="active-path" data-old_color="#000000" fill="#FFFFFF"/>
	</g>
</g><g>
	<g>
		<path d="M271.815,494.908H254.75c-4.71,0-8.532,3.814-8.532,8.532s3.823,8.532,8.532,8.532h17.065c4.71,0,8.532-3.814,8.532-8.532    S276.525,494.908,271.815,494.908z" data-original="#000000" class="active-path" data-old_color="#000000" fill="#FFFFFF"/>
	</g>
</g><g>
	<g>
		<path d="M374.203,494.908h-17.065c-4.71,0-8.532,3.814-8.532,8.532s3.823,8.532,8.532,8.532h17.065    c4.71,0,8.532-3.814,8.532-8.532S378.913,494.908,374.203,494.908z" data-original="#000000" class="active-path" data-old_color="#000000" fill="#FFFFFF"/>
	</g>
</g><g>
	<g>
		<path d="M323.009,494.908h-17.065c-4.71,0-8.532,3.814-8.532,8.532s3.823,8.532,8.532,8.532h17.065    c4.71,0,8.532-3.814,8.532-8.532S327.719,494.908,323.009,494.908z" data-original="#000000" class="active-path" data-old_color="#000000" fill="#FFFFFF"/>
	</g>
</g><g>
	<g>
		<path d="M289.443,227.146c-0.862-2.09-2.526-3.754-4.616-4.616c-1.041-0.435-2.142-0.657-3.259-0.657H179.179    c-4.71,0-8.532,3.814-8.532,8.532s3.823,8.532,8.532,8.532h81.791L87.823,412.085c-3.336,3.336-3.336,8.729,0,12.065    c1.664,1.664,3.848,2.5,6.032,2.5s4.369-0.836,6.032-2.5l173.147-173.147v81.791c0,4.718,3.823,8.532,8.532,8.532    s8.532-3.814,8.532-8.532V230.406C290.099,229.297,289.878,228.187,289.443,227.146z" data-original="#000000" class="active-path" data-old_color="#000000" fill="#FFFFFF"/>
	</g>
</g><g>
	<g>
		<path d="M511.556,44.699c-0.179-1.416-0.41-2.841-0.734-4.266c-1.852-8.08-5.58-15.742-10.938-22.082    c-9.863-11.664-24.71-18.345-39.889-18.328c-9.027,0.009-18.046,0-27.073,0c-0.879,0-1.758,0-2.645,0h-17.065h-34.129h-17.065    h-29.257c-0.862,0-1.647,0.256-2.44,0.495c-0.785-0.239-1.57-0.495-2.44-0.495h-17.065c-4.71,0-8.532,3.814-8.532,8.532    s3.822,8.532,8.532,8.532h13.404v119.453c0,28.234,22.961,51.194,51.194,51.194h119.453v8.532c0,4.718,3.823,8.532,8.532,8.532    s8.532-3.814,8.532-8.532v-17.065v-20.725v-17.065v-34.129V90.219c0-9.369,0.077-18.746,0-28.123    C511.898,56.244,512.265,50.484,511.556,44.699z" data-original="#000000" class="active-path" data-old_color="#000000" fill="#FFFFFF"/>
	</g>
</g></g> </svg>
