<?xml version="1.0"?>
<svg xmlns="http://www.w3.org/2000/svg" id="Capa_1" enable-background="new 0 0 512 512" height="512px" viewBox="0 0 512 512" width="512px"><g><g><path d="m468.941 260.292-45.546-9.109-36.789-36.789c-3.076-3.076-7.348-4.667-11.675-4.355l-55.233 3.945c-.869-5.318-2.174-10.485-3.883-15.442l46.094-19.754c2.897-1.242 5.331-3.366 6.953-6.07l27.146-45.242 54.735-18.245c7.859-2.62 12.106-11.115 9.487-18.974-2.62-7.859-11.115-12.107-18.974-9.487l-60 20c-3.397 1.132-6.277 3.442-8.119 6.513l-27.505 45.841-44.552 19.094c-1.563-1.852-3.191-3.593-4.874-5.226 4.65-3.232 9.063-7.016 13.148-11.361 13.756-14.631 21.646-33.085 21.646-50.631 0-18.177-8.795-33.5-24.762-43.158 8.856-18.989 28.206-31.842 49.762-31.842 8.284 0 15-6.716 15-15s-6.716-15-15-15c-19.561 0-38.641 6.811-53.725 19.177-10.679 8.754-19.035 20.025-24.389 32.63-6.827-1.192-14.154-1.807-21.886-1.807s-15.06.615-21.887 1.807c-5.354-12.604-13.71-23.875-24.388-32.63-15.084-12.366-34.164-19.177-53.725-19.177-8.284 0-15 6.716-15 15s6.716 15 15 15c21.556 0 40.906 12.853 49.762 31.842-15.968 9.658-24.762 24.981-24.762 43.158 0 17.546 7.89 36 21.646 50.63 4.085 4.345 8.499 8.129 13.148 11.361-1.683 1.633-3.311 3.374-4.874 5.226l-44.553-19.094-27.504-45.841c-1.842-3.071-4.722-5.381-8.119-6.513l-60-20c-7.862-2.62-16.354 1.628-18.974 9.487s1.628 16.354 9.487 18.974l54.736 18.245 27.145 45.242c1.622 2.704 4.055 4.828 6.954 6.07l46.093 19.754c-1.709 4.957-3.014 10.124-3.883 15.442l-55.233-3.945c-4.347-.31-8.6 1.279-11.675 4.355l-36.789 36.789-45.547 9.109c-8.123 1.625-13.392 9.527-11.767 17.65 1.426 7.13 7.688 12.061 14.692 12.061.975 0 1.965-.096 2.958-.294l50-10c2.904-.581 5.571-2.008 7.665-4.102l35.157-35.157 50.24 3.589c.559 3.93 1.347 7.787 2.365 11.541l-52.49 14.997c-4.338 1.24-7.889 4.367-9.666 8.514l-27.552 64.29-44.231 17.692c-7.692 3.077-11.433 11.806-8.356 19.498 2.346 5.865 7.979 9.433 13.932 9.433 1.854 0 3.74-.346 5.566-1.077l50-20c3.694-1.478 6.649-4.362 8.216-8.019l27.191-63.445 50.299-14.372c.487.677.971 1.356 1.478 2.015.97 1.261 1.976 2.461 2.999 3.632-8.319 3.689-15.839 8.504-22.386 14.426-18.559 16.792-28.368 41.631-28.368 71.837 0 29.902 9.587 63.381 25.646 89.555 18.771 30.595 43.402 47.445 69.354 47.445s50.583-16.85 69.354-47.445c16.059-26.174 25.646-59.653 25.646-89.555 0-30.206-9.81-55.045-28.368-71.834-6.547-5.923-14.067-10.738-22.386-14.426 1.023-1.171 2.03-2.371 3-3.632.507-.659.991-1.338 1.478-2.015l50.3 14.372 27.19 63.445c1.567 3.657 4.522 6.541 8.216 8.019l50 20c1.827.731 3.712 1.077 5.566 1.077 5.953 0 11.586-3.568 13.932-9.433 3.077-7.692-.664-16.421-8.355-19.498l-44.233-17.695-27.553-64.289c-1.777-4.147-5.327-7.274-9.666-8.514l-52.49-14.997c1.018-3.755 1.806-7.611 2.365-11.542l50.24-3.589 35.157 35.157c2.094 2.094 4.761 3.521 7.665 4.102l50 10c.993.199 1.982.294 2.957.294 7.004 0 13.267-4.931 14.693-12.061 1.625-8.123-3.643-16.025-11.767-17.649zm-212.941-180.292c10.557 0 45 1.803 45 25 0 20.256-20.765 45-45 45s-45-24.744-45-45c0-23.197 34.443-25 45-25zm-64.99 296h129.98c-.111 13.494-2.447 27.164-6.406 40h-117.168c-3.959-12.836-6.296-26.506-6.406-40zm64.99 106c-16.309 0-33.103-14.661-45.535-36h91.069c-12.431 21.339-29.225 36-45.534 36zm60.219-136h-120.438c12.18-31.915 44.538-36 60.219-36s48.039 4.085 60.219 36zm-95.219-116c0-27.103 16.028-50 35-50s35 22.897 35 50-16.028 50-35 50-35-22.897-35-50z" data-original="#000000" class="active-path" data-old_color="#000000" fill="#4FB883"/></g></g> </svg>
