<?xml version="1.0" encoding="iso-8859-1"?>
<!-- Generator: Adobe Illustrator 19.0.0, SVG Export Plug-In . SVG Version: 6.00 Build 0)  -->
<svg version="1.1" id="Layer_1" xmlns="http://www.w3.org/2000/svg" xmlns:xlink="http://www.w3.org/1999/xlink" x="0px" y="0px"
	 viewBox="0 0 512 512" style="enable-background:new 0 0 512 512;" xml:space="preserve">
<polygon style="fill:#DCD08E;" points="278.865,240.172 278.865,297.62 312.966,266.565 "/>
<path style="fill:#6DC0A7;" d="M363.134,214.032V61.104c0-4.414,5.398-6.632,8.489-3.522l87.62,88.09
	c22.118,22.254,23.12,58.669,1.376,81.299c-22.267,23.174-59.112,23.411-81.674,0.71L363.134,214.032z"/>
<path style="fill:#AAE4D5;" d="M453.205,253.635l-0.985-5.523l-12.832-12.838c-2.734-4.988-6.133-9.701-10.311-13.947l-2.826-3.421
	c-1.391-1.414-3.807-7.371-5.291-8.635c-24.316-20.707-60.424-21.175-83.2,1.984l-6.315,12.036l-20.867,23.475
	c-1.907,1.094-3.507,1.795-4.567,1.807l23.633,11.805c5.39,2.51,10.254,5.874,13.908,9.55l2.956,3.371
	c18.104,18.416,21.318,49.852,2.718,68.761L330,362.654c-21.011,20.761-43.239,57.273-43.775,87.083
	c0.354,3.476,3.289,6.187,6.858,6.187c1.266,0,2.463-0.347,3.493-0.944c0.336-0.278,0.662-0.571,0.972-0.884l135.881-136.749
	C449.884,300.62,457.329,276.806,453.205,253.635z"/>
<g>
	<path style="fill:#6DC0A7;" d="M453.157,253.635l-0.985-5.523l-12.833-12.838c-2.734-4.988-6.133-9.701-10.311-13.947l-2.826-3.421
		c-1.391-1.414-2.843-2.735-4.327-3.999l-10.535,39.726c4.125,23.17-3.056,46.985-19.513,63.711c0,0-80.806,89.109-104.003,136.137
		c1.265,1.492,3.149,2.441,5.258,2.441c1.731,0,3.334-0.65,4.553-1.708c0.034-0.035,0.073-0.064,0.108-0.098l135.806-136.773
		C450.005,300.62,457.281,276.806,453.157,253.635z"/>
	<path style="fill:#6DC0A7;" d="M289.299,192.275c7.888-7.497,18.501-12.123,30.208-12.123c24.325,0,44.043,19.84,44.043,44.315
		s-19.718,44.315-44.043,44.315c-2.567,0-5.067-0.266-7.513-0.691c-20.738-3.593-36.531-21.732-36.531-43.624
		C275.464,212.607,289.477,192.275,289.299,192.275z"/>
</g>
<g>
	<path style="fill:#AAE4D5;" d="M343.223,230.507c0-21.138-17.03-38.274-38.039-38.274c-0.603,0-7.684,0.014-15.884,0.042
		c-8.502,8.079-13.835,19.496-13.835,32.19c0,21.892,15.792,40.03,36.531,43.624C329.741,264.851,343.223,249.297,343.223,230.507z"
		/>
	<path style="fill:#AAE4D5;" d="M395.254,199.321l96.1-96.58c7.6-7.647,20.645-2.193,20.645,8.658v110.347
		c0,33.032-26.726,59.811-59.557,59.811s-59.502-26.779-59.502-59.811l-1.186-12.878C391.5,205.318,392.76,201.83,395.254,199.321z"
		/>
</g>
<path style="fill:#6DC0A7;" d="M454.022,260.666c-22.742,0-42.284-19.631-42.284-42.423v-0.907v-6.955l71.332-72.402
	c4.183-4.264,11.68-1.264,11.68,4.748v76.6C494.751,242.119,476.771,260.666,454.022,260.666z"/>
<path style="fill:#E27DA4;" d="M148.956,213.943V61.014c0-4.414-5.128-6.632-8.219-3.522l-87.485,88.09
	c-22.118,22.254-23.052,58.669-1.309,81.299c22.267,23.174,58.877,23.411,81.438,0.71L148.956,213.943z"/>
<path style="fill:#E8A3C2;" d="M220,455.959c3.866,0,7-3.134,7-7c0-0.508,0.019-1.02,0.013-1.51
	c-1.586-29.37-23.222-64.562-43.697-84.794l-19.224-20.595c-18.6-18.91-15.386-50.344,2.718-68.761l2.956-3.371
	c3.655-3.675,8.518-7.04,13.908-9.55l23.633-11.805c-1.061-0.012-2.66-0.713-4.567-1.807l-20.867-23.475l-6.315-12.036
	c-22.776-23.157-58.884-22.69-83.2-1.984c-1.485,1.264-3.901,7.221-5.291,8.635l-2.825,3.421
	c-4.176,4.247-7.577,8.959-10.311,13.947l-12.832,12.838l-0.985,5.523c-4.125,23.17,3.32,46.985,19.777,63.711l137.005,137.883
	C217.834,455.692,218.891,455.959,220,455.959z"/>
<path style="fill:#E27DA4;" d="M220,455.959c1.989,0,3.781-0.833,5.055-2.166C202.067,406.846,121.17,317.348,121.17,317.348
	c-16.457-16.726-23.367-40.541-19.244-63.711L91.391,213.91c-1.485,1.264-2.937,2.584-4.327,3.999l-2.826,3.421
	c-4.176,4.247-7.577,8.959-10.311,13.947l-12.832,12.838l-0.985,5.523c-4.125,23.17,3.018,46.985,19.473,63.711L215.3,454.165
	C216.547,455.275,218.206,455.959,220,455.959z"/>
<path style="fill:#E8A3C2;" d="M116.207,199.321l-95.831-96.58C12.775,95.094,0,100.548,0,111.399v110.347
	c0,33.032,26.456,59.811,59.287,59.811s59.367-26.779,59.367-59.811l1.118-12.878C120.027,205.318,118.7,201.83,116.207,199.321z"/>
<path style="fill:#E27DA4;" d="M57.439,260.666c22.742,0,41.744-19.631,41.744-42.423v-0.907v-6.955L28.39,137.98
	c-4.183-4.265-11.141-1.264-11.141,4.748v76.6C17.249,242.119,34.689,260.666,57.439,260.666z"/>
<polygon style="fill:#DCD08E;" points="230.351,241.15 230.351,297.62 196.249,266.565 "/>
<path style="fill:#E27DA4;" d="M222.608,192.275c-7.888-7.497-18.501-12.123-30.208-12.123c-24.325,0-44.043,19.84-44.043,44.315
	s19.719,44.315,44.043,44.315c2.567,0,5.067-0.266,7.513-0.691c20.738-3.593,36.531-21.732,36.531-43.624
	C236.443,212.607,222.43,192.275,222.608,192.275z"/>
<g>
	<path style="fill:#E8A3C2;" d="M168.683,230.507c0-21.138,17.03-38.274,38.039-38.274c0.603,0,7.684,0.014,15.884,0.042
		c8.502,8.079,13.835,19.496,13.835,32.19c0,21.892-15.792,40.03-36.531,43.624C182.165,264.851,168.683,249.297,168.683,230.507z"
		/>
	<path style="fill:#E8A3C2;" d="M299.723,322.307l-0.958-1.16c-8.2-8.339-21.495-9.019-29.693-0.684l-2.47,2.51l-9.649,10.854
		l-9.649-10.854h-0.001l-2.469-2.511c-8.2-8.338-21.494-7.654-29.694,0.682l-0.958,1.16c-8.387,8.529-8.387,22.355,0,30.884
		l40.319,40.471c1.362,1.339,3.497,1.382,4.926,0.164l40.294-40.634C308.11,344.662,308.111,330.835,299.723,322.307z"/>
</g>
<path style="fill:#E27DA4;" d="M299.723,322.307l-0.958-1.16c-8.2-8.339-21.495-9.019-29.693-0.684l-2.43,2.51l-9.609,10.854v60.883
	c0.947,0.009,1.893-0.347,2.614-1.068l40.095-40.452C308.13,344.662,308.111,330.835,299.723,322.307z"/>
<g>
	<circle style="fill:#3C4859;" cx="199.424" cy="231.713" r="8.558"/>
	<circle style="fill:#3C4859;" cx="313.259" cy="231.713" r="8.558"/>
</g>
<g>
</g>
<g>
</g>
<g>
</g>
<g>
</g>
<g>
</g>
<g>
</g>
<g>
</g>
<g>
</g>
<g>
</g>
<g>
</g>
<g>
</g>
<g>
</g>
<g>
</g>
<g>
</g>
<g>
</g>
</svg>
