<svg id="Capa_1" enable-background="new 0 0 497 497" height="512" viewBox="0 0 497 497" width="512" xmlns="http://www.w3.org/2000/svg"><g><path d="m126.231 268.316c-49.143 18.823-96.677-14.222-95.405-71.754l.021-.824c.152-6.672-4.446-12.723-11.212-14.168-7.655-1.635-15.186 3.245-16.821 10.9-17.768 83.186 51.019 151.416 138.666 136.124z" fill="#ffbfc5"/><path d="m484.204 20.417-6.713 1.647c-10.512 2.578-20.117 7.988-27.771 15.642l-89.562 89.562 29.685 29.685 89.562-89.562c7.654-7.654 13.063-17.258 15.642-27.77l1.647-6.713c1.847-7.534-4.958-14.339-12.49-12.491z" fill="#f7cec4"/><path d="m154.311 333.115-110.042 110.042c-5.397 5.397-5.397 14.147 0 19.544l10.14 10.14c5.397 5.397 14.147 5.397 19.544 0l110.042-110.042z" fill="#f7cec4"/><circle cx="218.652" cy="109.531" fill="#e7886e" r="63.669"/><circle cx="218.652" cy="108.047" fill="#ffbfc5" r="26.778"/><path d="m154.311 333.115-44.151 44.151c5.496 7.719 11.657 15.028 18.478 21.849l.379.378c3.109 3.09 6.464 5.845 10.003 8.281l44.975-44.975z" fill="#f3bdae"/><path d="m423.963 107.576c-4.156-.832-7.277-4.27-7.717-8.485-.744-7.13-2.207-14.943-4.767-23.144l-51.319 51.319 29.685 29.685 45.467-45.467c-3.542-1.777-7.348-3.106-11.349-3.908z" fill="#f3bdae"/><path d="m126.231 268.316c-16.843 6.451-33.496 6.808-48.061 2.176-.44 19.571 2.104 38.542 7.438 56.419 17.133 4.312 36.016 5.146 55.872 1.682z" fill="#ffa0ab"/><path d="m418.071 136.993-23.286-4.664c-5.343-1.07-8.998-6.033-8.399-11.45 1.558-14.093.849-41.874-21.738-68.659-7.173-8.507-20.885-6.364-25.057 3.952-4.539 11.223-11.545 25.211-21.722 37.592-5.124 6.233-13.075 9.394-21.104 8.591-47.54-4.753-98.574 12.438-137.007 50.871-64.779 64.779-69.21 165.373-9.907 224.675.104.104.209.208.313.312 16.516 16.414 43.298 16.129 59.763-.336l174.49-174.49 41.26-41.26c8.41-8.41 4.056-22.799-7.606-25.134z" fill="#ed9b83"/><g><path d="m319.725 150.014h-14.685v-14.686c0-4.142-3.357-7.5-7.5-7.5s-7.5 3.358-7.5 7.5v14.686h-14.686c-4.143 0-7.5 3.358-7.5 7.5s3.357 7.5 7.5 7.5h14.686v14.686c0 4.142 3.357 7.5 7.5 7.5s7.5-3.358 7.5-7.5v-14.686h14.686c4.143 0 7.5-3.358 7.5-7.5s-3.358-7.5-7.501-7.5z" fill="#423e4f"/></g><path d="m194.326 287.296c-12.687 0-24.614 4.94-33.585 13.911-2.929 2.929-2.929 7.678.001 10.607 2.928 2.929 7.677 2.929 10.606 0 6.137-6.138 14.298-9.518 22.978-9.518 8.681 0 16.841 3.38 22.979 9.518 5.819 5.82 9.192 13.551 9.496 21.771.15 4.045 3.476 7.223 7.49 7.223.094 0 .188-.002.282-.005 4.14-.153 7.371-3.633 7.218-7.772-.445-12.015-5.374-23.316-13.88-31.822-8.971-8.972-20.899-13.913-33.585-13.913z" fill="#e7886e"/><path d="m267.293 328.27c-15.026-15.026-39.387-15.026-54.413 0l-9.828 9.828c-11.161 11.161-11.161 29.257 0 40.418 11.161 11.161 29.257 11.161 40.418 0l23.823-23.823c7.296-7.296 7.297-19.126 0-26.423z" fill="#ffbfc5"/><path d="m385.323 210.24c-15.026-15.026-39.387-15.026-54.413 0l-9.828 9.828c-11.161 11.161-11.161 29.257 0 40.418 11.161 11.161 29.257 11.161 40.418 0l23.823-23.823c7.297-7.296 7.297-19.126 0-26.423z" fill="#ffbfc5"/><path d="m129.963 248.882c0-37.186 12.511-71.552 33.688-99.43-1.311 1.236-2.61 2.491-3.893 3.774-64.779 64.779-69.21 165.373-9.907 224.676.104.104.209.208.313.312 13.834 13.749 34.868 15.773 51.011 6.396-43.192-30.708-71.212-80.065-71.212-135.728z" fill="#e7886e"/></g></svg>