<svg id="Capa_1" enable-background="new 0 0 512 512" height="512" viewBox="0 0 512 512" width="512" xmlns="http://www.w3.org/2000/svg"><g><g><path d="m60.507 205.555c10.276 10.276 14.091 24.784 11.683 39.055-.758 4.491-4.325 8.058-8.816 8.816-14.271 2.408-28.779-1.407-39.055-11.683s-14.091-24.784-11.683-39.055c.758-4.491 4.325-8.058 8.816-8.816 14.271-2.407 28.779 1.408 39.055 11.683z" fill="#bcea73"/></g><g><path d="m470.521 129.319h-4.48c-9.936 0-18.924-5.494-23.455-14.337-1.102-2.152-2.918-3.894-5.115-4.906l-14.56-6.794c-3.879-1.81-5.557-6.424-3.747-10.303 1.812-3.881 6.425-5.559 10.305-3.747l14.526 6.778c5.301 2.442 9.714 6.675 12.391 11.902 1.865 3.64 5.565 5.902 9.655 5.902h4.48c4.282 0 7.753 3.471 7.753 7.753s-3.471 7.752-7.753 7.752z" fill="#ffd597"/></g><path d="m441.922 83.437c0 19.96-35.135 27.527-58.92 27.796l-5.241.01v8.59c-14.637.01-26.493 11.867-26.493 26.504v162.629c0 13.583-6.461 25.656-16.487 33.315h-40.861v-239.028c0-36.251 29.398-65.649 65.649-65.649l23.433.031c41.006 0 58.92 25.832 58.92 45.802z" fill="#925b46"/><path d="m441.922 83.437c0 19.526-33.626 27.196-57.359 27.765 15.381-5.923 28.178-15.722 28.178-27.765 0-19.537-17.139-44.676-56.274-45.761 1.034-.052 2.067-.072 3.101-.072l23.433.031c41.007 0 58.921 25.832 58.921 45.802z" fill="#865240"/><path d="m293.919 277.077v38.215c25.139 3.297 51.219 5.417 78.053 6.336 3.68-6.233 5.788-13.5 5.788-21.263v-23.289h-83.841z" fill="#865240"/><path d="m377.761 111.243v189.122c0 23.149-18.766 41.916-41.916 41.916h-36.127c23.144 0 41.916-18.772 41.916-41.916v-162.635c0-14.629 11.857-26.49 26.487-26.494l9.641-.003v.01z" fill="#fcc16d"/><path d="m341.634 277.077v23.289c0 6.977-1.705 13.562-4.734 19.35 11.536.868 23.227 1.509 35.073 1.912 3.68-6.233 5.788-13.5 5.788-21.263v-23.289h-36.127z" fill="#fca62f"/><g><path d="m46.682 276.858h49.642c1.378 20.919 7.99 97.971-22.262 148.46-5.985 9.988-21.389 3.854-18.944-7.529 8.122-37.812 14.452-96.066-8.436-140.931z" fill="#865240"/><path d="m97.489 332.42c-4.238.92-8.642 1.396-13.159 1.396-8.104 0-15.846-1.551-22.958-4.362-1.912-18.213-6.378-36.293-14.689-52.594h49.637c.631 9.51 2.337 30.617 1.169 55.56z" fill="#7b4b39"/></g><g><path d="m378.409 335.824c-10.276-10.276-14.091-24.784-11.683-39.055.758-4.491 4.325-8.058 8.816-8.816 14.271-2.408 28.779 1.407 39.055 11.683s14.091 24.784 11.683 39.055c-.758 4.491-4.325 8.058-8.816 8.816-14.271 2.408-28.779-1.407-39.055-11.683z" fill="#2db181"/><path d="m426.189 321.866c-7.412.186-15.174.289-23.247.289-11.412 0-22.7-.207-33.863-.631-3.008-7.711-3.783-16.27-2.357-24.757.765-4.486 4.331-8.052 8.817-8.817 14.275-2.408 28.778 1.406 39.063 11.681 6.191 6.203 10.037 13.935 11.587 22.235z" fill="#1ca56f"/></g><g><path d="m464.648 256.585c-10.276 10.276-24.784 14.091-39.055 11.683-4.491-.758-8.058-4.325-8.816-8.816-2.408-14.271 1.407-28.779 11.683-39.055s24.784-14.091 39.055-11.683c4.491.758 8.058 4.325 8.816 8.816 2.408 14.271-1.407 28.779-11.683 39.055z" fill="#2db181"/></g><g><path d="m.122 245.299c-.628-2.85 1.22-5.654 4.088-6.19 23.732-4.437 123.87-19.853 255.108 6.61 110.108 22.201 217.901 10.634 242.035 7.557 2.78-.354 5.334 1.577 5.757 4.348l4.829 31.661c.436 2.861-1.554 5.523-4.423 5.902-13.781 1.82-52.915 6.292-104.579 6.293-44.169 0-97.49-3.267-151.987-14.256-72.169-14.551-134.297-15.342-173.709-13.443-32.131 1.548-54.818 5.087-64.26 6.782-2.735.491-5.371-1.26-5.969-3.974z" fill="#cfa090"/></g><g><path d="m417.652 220.397c10.276 10.276 14.091 24.784 11.683 39.055-.758 4.491-4.325 8.058-8.816 8.816-14.271 2.408-28.779-1.407-39.055-11.683s-14.091-24.784-11.683-39.055c.758-4.491 4.325-8.058 8.816-8.816 14.271-2.408 28.779 1.407 39.055 11.683z" fill="#bcea73"/></g><g><path d="m210.088 238.479v91.667c0 23.144-18.772 41.916-41.926 41.916-5.106 0-9.996-.91-14.523-2.584v-135.134c0-16.063 9.045-30.018 22.317-37.057 8.456 1.592 16.012 5.716 21.852 11.557 7.587 7.587 12.28 18.068 12.28 29.635z" fill="#a96a53"/><path d="m210.088 238.479v91.667c0 23.144-18.772 41.916-41.926 41.916-4.972 0-9.748-.868-14.172-2.46 16.177-5.82 27.734-21.294 27.734-39.456v-91.667c0-11.577-4.693-22.048-12.28-29.636-1.282-1.282-2.636-2.471-4.073-3.577 3.06-3.184 6.626-5.892 10.575-7.97 8.455 1.571 16.022 5.706 21.862 11.546 7.587 7.589 12.28 18.06 12.28 29.637z" fill="#925b46"/><path d="m185.997 200.533c-14.234 6.709-24.085 21.18-24.085 37.946v133.117c-20.188-3.018-35.662-20.426-35.662-41.451v-91.667c0-23.144 18.761-41.916 41.916-41.916 6.378.001 12.425 1.428 17.831 3.971z" fill="#ffd597"/></g><g><path d="m126.246 238.479v32.747c0 23.144-18.761 41.916-41.916 41.916-5.892 0-11.505-1.22-16.591-3.411v-75.386c0-16.26 9.272-30.37 22.813-37.316 9.086 1.344 17.221 5.613 23.423 11.815 7.578 7.587 12.271 18.068 12.271 29.635z" fill="#a96a53"/><path d="m126.246 238.479v32.747c0 23.144-18.761 41.916-41.916 41.916-4.972 0-9.748-.868-14.182-2.46 16.177-5.809 27.744-21.284 27.744-39.456v-32.747c0-11.577-4.693-22.048-12.28-29.636-1.623-1.623-3.39-3.122-5.261-4.466 2.998-2.936 6.429-5.427 10.202-7.349 9.086 1.344 17.221 5.613 23.423 11.815 7.577 7.588 12.27 18.059 12.27 29.636z" fill="#925b46"/><path d="m102.159 200.533c-14.234 6.709-24.085 21.18-24.085 37.946v74.198c-20.188-3.018-35.662-20.426-35.662-41.451v-32.747c0-23.144 18.761-41.916 41.916-41.916 6.378 0 12.425 1.427 17.831 3.97z" fill="#ffd597"/></g><g><path d="m293.919 247.782v184.698c0 23.144-18.761 41.916-41.916 41.916-5.106 0-10.006-.91-14.523-2.584v-228.165c0-16.063 9.045-30.018 22.317-37.057 8.456 1.592 16.012 5.716 21.842 11.557 7.587 7.587 12.28 18.068 12.28 29.635z" fill="#a96a53"/><path d="m293.919 247.782v184.698c0 23.144-18.761 41.916-41.916 41.916-4.962 0-9.717-.858-14.13-2.44 16.198-5.799 27.796-21.283 27.796-39.476v-184.698c0-11.577-4.693-22.048-12.28-29.636-1.292-1.292-2.677-2.501-4.124-3.618 3.049-3.173 6.605-5.861 10.523-7.928 8.456 1.571 16.012 5.706 21.852 11.546 7.586 7.588 12.279 18.059 12.279 29.636z" fill="#925b46"/><path d="m269.839 209.836c-14.234 6.709-24.085 21.18-24.085 37.946v226.149c-20.188-3.018-35.662-20.426-35.662-41.451v-184.698c0-23.144 18.761-41.916 41.916-41.916 6.378 0 12.425 1.427 17.831 3.97z" fill="#ffd597"/></g><g id="XMLID_281_"><path d="m396.557 79.528h-.107c-4.282 0-7.753-3.471-7.753-7.753s3.47-7.753 7.753-7.753h.107c4.282 0 7.753 3.471 7.753 7.753-.001 4.282-3.471 7.753-7.753 7.753z" fill="#7b4b39"/></g></g></svg>